solid OpenSCAD_Model
  facet normal -1 6.12323e-17 -6.12323e-17
    outer loop
      vertex -22.5 -1.76777 3.76777
      vertex -22.5 -0.956709 4.3097
      vertex -22.5 -2.3097 2.95671
    endloop
  endfacet
  facet normal -1 6.12323e-17 -6.12323e-17
    outer loop
      vertex -22.5 -2.3097 2.95671
      vertex -22.5 -0.956709 4.3097
      vertex -22.5 4.59243e-16 4.5
    endloop
  endfacet
  facet normal -1 6.12323e-17 -6.12323e-17
    outer loop
      vertex -22.5 -2.3097 2.95671
      vertex -22.5 4.59243e-16 4.5
      vertex -22.5 0.956709 4.3097
    endloop
  endfacet
  facet normal -1 6.12323e-17 -6.12323e-17
    outer loop
      vertex -22.5 -2.3097 2.95671
      vertex -22.5 0.956709 4.3097
      vertex -22.5 1.76777 3.76777
    endloop
  endfacet
  facet normal -1 6.12323e-17 -6.12323e-17
    outer loop
      vertex -22.5 0.463525 3.42658
      vertex -22.5 1.76777 3.76777
      vertex -22.5 2.3097 2.95671
    endloop
  endfacet
  facet normal -1 6.12323e-17 -6.12323e-17
    outer loop
      vertex -22.5 1.5 2
      vertex -22.5 2.5 2
      vertex -22.5 2.3097 1.04329
    endloop
  endfacet
  facet normal -1 6.12323e-17 -6.12323e-17
    outer loop
      vertex -22.5 0.463525 0.573415
      vertex -22.5 1.76777 0.232233
      vertex -22.5 0.956709 -0.309699
    endloop
  endfacet
  facet normal -1 6.12323e-17 -6.12323e-17
    outer loop
      vertex -22.5 0.463525 0.573415
      vertex -22.5 4.59243e-16 -0.5
      vertex -22.5 -1.21352 1.11832
    endloop
  endfacet
  facet normal -1 6.12323e-17 -6.12323e-17
    outer loop
      vertex -22.5 -1.21352 1.11832
      vertex -22.5 4.59243e-16 -0.5
      vertex -22.5 -0.956709 -0.309699
    endloop
  endfacet
  facet normal -1 6.12323e-17 -6.12323e-17
    outer loop
      vertex -22.5 -2.3097 2.95671
      vertex -22.5 -0.956709 -0.309699
      vertex -22.5 -1.76777 0.232233
    endloop
  endfacet
  facet normal -1 6.12323e-17 -6.12323e-17
    outer loop
      vertex -22.5 -2.3097 2.95671
      vertex -22.5 -1.76777 0.232233
      vertex -22.5 -2.3097 1.04329
    endloop
  endfacet
  facet normal -1 6.12323e-17 -6.12323e-17
    outer loop
      vertex -22.5 -2.3097 2.95671
      vertex -22.5 -2.3097 1.04329
      vertex -22.5 -2.5 2
    endloop
  endfacet
  facet normal -1 6.12323e-17 -6.12323e-17
    outer loop
      vertex -22.5 -2.3097 2.95671
      vertex -22.5 1.76777 3.76777
      vertex -22.5 0.463525 3.42658
    endloop
  endfacet
  facet normal -1 6.12323e-17 -6.12323e-17
    outer loop
      vertex -22.5 -1.21352 1.11832
      vertex -22.5 -2.3097 2.95671
      vertex -22.5 -1.21352 2.88168
    endloop
  endfacet
  facet normal -1 6.12323e-17 -6.12323e-17
    outer loop
      vertex -22.5 0.463525 0.573415
      vertex -22.5 0.956709 -0.309699
      vertex -22.5 4.59243e-16 -0.5
    endloop
  endfacet
  facet normal -1 6.12323e-17 -6.12323e-17
    outer loop
      vertex -22.5 -2.3097 2.95671
      vertex -22.5 -1.21352 1.11832
      vertex -22.5 -0.956709 -0.309699
    endloop
  endfacet
  facet normal -1 6.12323e-17 -6.12323e-17
    outer loop
      vertex -22.5 1.5 2
      vertex -22.5 2.3097 1.04329
      vertex -22.5 1.76777 0.232233
    endloop
  endfacet
  facet normal -1 6.12323e-17 -6.12323e-17
    outer loop
      vertex -22.5 0.463525 3.42658
      vertex -22.5 2.3097 2.95671
      vertex -22.5 2.5 2
    endloop
  endfacet
  facet normal -1 6.12323e-17 -6.12323e-17
    outer loop
      vertex -22.5 0.463525 3.42658
      vertex -22.5 2.5 2
      vertex -22.5 1.5 2
    endloop
  endfacet
  facet normal -1 6.12323e-17 -6.12323e-17
    outer loop
      vertex -22.5 -1.21352 2.88168
      vertex -22.5 -2.3097 2.95671
      vertex -22.5 0.463525 3.42658
    endloop
  endfacet
  facet normal -1 6.12323e-17 -6.12323e-17
    outer loop
      vertex -22.5 1.5 2
      vertex -22.5 1.76777 0.232233
      vertex -22.5 0.463525 0.573415
    endloop
  endfacet
  facet normal -0.440299 -0.49882 0.746536
    outer loop
      vertex -22.5 -0.956709 4.3097
      vertex -22.5 -1.76777 3.76777
      vertex -17.5 -1.91342 6.6194
    endloop
  endfacet
  facet normal -0.4403 -0.498819 0.746536
    outer loop
      vertex -17.5 -1.91342 6.6194
      vertex -22.5 -1.76777 3.76777
      vertex -17.5 -3.53553 5.53553
    endloop
  endfacet
  facet normal -0.4403 -0.746536 0.498819
    outer loop
      vertex -17.5 -3.53553 5.53553
      vertex -22.5 -1.76777 3.76777
      vertex -22.5 -2.3097 2.95671
    endloop
  endfacet
  facet normal -0.440299 -0.746536 0.498819
    outer loop
      vertex -17.5 -3.53553 5.53553
      vertex -22.5 -2.3097 2.95671
      vertex -17.5 -4.6194 3.91342
    endloop
  endfacet
  facet normal -0.440299 -0.880599 0.175162
    outer loop
      vertex -17.5 -4.6194 3.91342
      vertex -22.5 -2.3097 2.95671
      vertex -22.5 -2.5 2
    endloop
  endfacet
  facet normal -0.4403 -0.880599 0.175162
    outer loop
      vertex -17.5 -4.6194 3.91342
      vertex -22.5 -2.5 2
      vertex -17.5 -5 2
    endloop
  endfacet
  facet normal -0.4403 -0.880599 -0.175162
    outer loop
      vertex -17.5 -5 2
      vertex -22.5 -2.5 2
      vertex -22.5 -2.3097 1.04329
    endloop
  endfacet
  facet normal -0.440299 -0.880599 -0.175162
    outer loop
      vertex -17.5 -5 2
      vertex -22.5 -2.3097 1.04329
      vertex -17.5 -4.6194 0.086583
    endloop
  endfacet
  facet normal -0.440299 -0.746536 -0.49882
    outer loop
      vertex -17.5 -4.6194 0.086583
      vertex -22.5 -2.3097 1.04329
      vertex -22.5 -1.76777 0.232233
    endloop
  endfacet
  facet normal -0.4403 -0.746536 -0.498819
    outer loop
      vertex -17.5 -4.6194 0.086583
      vertex -22.5 -1.76777 0.232233
      vertex -17.5 -3.53553 -1.53553
    endloop
  endfacet
  facet normal -0.4403 -0.498819 -0.746536
    outer loop
      vertex -22.5 -1.76777 0.232233
      vertex -22.5 -0.956709 -0.309699
      vertex -17.5 -3.53553 -1.53553
    endloop
  endfacet
  facet normal -0.440299 -0.498819 -0.746536
    outer loop
      vertex -17.5 -3.53553 -1.53553
      vertex -22.5 -0.956709 -0.309699
      vertex -17.5 -1.91342 -2.6194
    endloop
  endfacet
  facet normal -0.440299 -0.175162 -0.880599
    outer loop
      vertex -22.5 -0.956709 -0.309699
      vertex -22.5 4.59243e-16 -0.5
      vertex -17.5 -1.91342 -2.6194
    endloop
  endfacet
  facet normal -0.4403 -0.175162 -0.880599
    outer loop
      vertex -17.5 -1.91342 -2.6194
      vertex -22.5 4.59243e-16 -0.5
      vertex -17.5 1.53081e-16 -3
    endloop
  endfacet
  facet normal -0.4403 0.175162 -0.880599
    outer loop
      vertex -22.5 4.59243e-16 -0.5
      vertex -22.5 0.956709 -0.309699
      vertex -17.5 1.53081e-16 -3
    endloop
  endfacet
  facet normal -0.440299 0.175162 -0.880599
    outer loop
      vertex -17.5 1.53081e-16 -3
      vertex -22.5 0.956709 -0.309699
      vertex -17.5 1.91342 -2.6194
    endloop
  endfacet
  facet normal -0.440299 0.49882 -0.746536
    outer loop
      vertex -22.5 0.956709 -0.309699
      vertex -22.5 1.76777 0.232233
      vertex -17.5 1.91342 -2.6194
    endloop
  endfacet
  facet normal -0.4403 0.498819 -0.746536
    outer loop
      vertex -17.5 1.91342 -2.6194
      vertex -22.5 1.76777 0.232233
      vertex -17.5 3.53553 -1.53553
    endloop
  endfacet
  facet normal -0.4403 0.746536 -0.498819
    outer loop
      vertex -22.5 2.3097 1.04329
      vertex -17.5 3.53553 -1.53553
      vertex -22.5 1.76777 0.232233
    endloop
  endfacet
  facet normal -0.440299 0.746536 -0.498819
    outer loop
      vertex -17.5 3.53553 -1.53553
      vertex -22.5 2.3097 1.04329
      vertex -17.5 4.6194 0.086583
    endloop
  endfacet
  facet normal -0.440299 0.880599 -0.175162
    outer loop
      vertex -22.5 2.5 2
      vertex -17.5 4.6194 0.086583
      vertex -22.5 2.3097 1.04329
    endloop
  endfacet
  facet normal -0.4403 0.880599 -0.175162
    outer loop
      vertex -22.5 2.5 2
      vertex -17.5 5 2
      vertex -17.5 4.6194 0.086583
    endloop
  endfacet
  facet normal -0.4403 0.880599 0.175162
    outer loop
      vertex -22.5 2.5 2
      vertex -22.5 2.3097 2.95671
      vertex -17.5 5 2
    endloop
  endfacet
  facet normal -0.440299 0.880599 0.175162
    outer loop
      vertex -17.5 5 2
      vertex -22.5 2.3097 2.95671
      vertex -17.5 4.6194 3.91342
    endloop
  endfacet
  facet normal -0.440299 0.746536 0.49882
    outer loop
      vertex -22.5 2.3097 2.95671
      vertex -22.5 1.76777 3.76777
      vertex -17.5 4.6194 3.91342
    endloop
  endfacet
  facet normal -0.4403 0.746536 0.498819
    outer loop
      vertex -17.5 4.6194 3.91342
      vertex -22.5 1.76777 3.76777
      vertex -17.5 3.53553 5.53553
    endloop
  endfacet
  facet normal -0.4403 0.498819 0.746536
    outer loop
      vertex -22.5 1.76777 3.76777
      vertex -22.5 0.956709 4.3097
      vertex -17.5 3.53553 5.53553
    endloop
  endfacet
  facet normal -0.440299 0.498819 0.746536
    outer loop
      vertex -17.5 3.53553 5.53553
      vertex -22.5 0.956709 4.3097
      vertex -17.5 1.91342 6.6194
    endloop
  endfacet
  facet normal -0.440299 0.175162 0.880599
    outer loop
      vertex -22.5 0.956709 4.3097
      vertex -22.5 4.59243e-16 4.5
      vertex -17.5 1.91342 6.6194
    endloop
  endfacet
  facet normal -0.4403 0.175162 0.880599
    outer loop
      vertex -17.5 1.91342 6.6194
      vertex -22.5 4.59243e-16 4.5
      vertex -17.5 1.53081e-16 7
    endloop
  endfacet
  facet normal -0.4403 -0.175162 0.880599
    outer loop
      vertex -22.5 4.59243e-16 4.5
      vertex -22.5 -0.956709 4.3097
      vertex -17.5 1.53081e-16 7
    endloop
  endfacet
  facet normal -0.440299 -0.175162 0.880599
    outer loop
      vertex -17.5 1.53081e-16 7
      vertex -22.5 -0.956709 4.3097
      vertex -17.5 -1.91342 6.6194
    endloop
  endfacet
  facet normal -1.35465e-17 -0.809017 -0.587785
    outer loop
      vertex -22.5 1.5 2
      vertex -12.5 1.5 2
      vertex -12.5 0.463525 3.42658
    endloop
  endfacet
  facet normal -1.35465e-17 -0.809017 -0.587785
    outer loop
      vertex -22.5 0.463525 3.42658
      vertex -22.5 1.5 2
      vertex -12.5 0.463525 3.42658
    endloop
  endfacet
  facet normal 7.71573e-17 0.309017 -0.951056
    outer loop
      vertex -12.5 0.463525 3.42658
      vertex -12.5 -0.849368 3
      vertex -22.5 0.463525 3.42658
    endloop
  endfacet
  facet normal 7.71573e-17 0.309017 -0.951056
    outer loop
      vertex -22.5 0.463525 3.42658
      vertex -12.5 -0.849368 3
      vertex -12.5 -1.21352 2.88168
    endloop
  endfacet
  facet normal 7.71573e-17 0.309017 -0.951056
    outer loop
      vertex -22.5 0.463525 3.42658
      vertex -12.5 -1.21352 2.88168
      vertex -22.5 -1.21352 2.88168
    endloop
  endfacet
  facet normal -8.55295e-17 -0.809017 0.587785
    outer loop
      vertex -22.5 0.463525 0.573415
      vertex -12.5 0.463525 0.573415
      vertex -12.5 1.5 2
    endloop
  endfacet
  facet normal -8.55295e-17 -0.809017 0.587785
    outer loop
      vertex -22.5 1.5 2
      vertex -22.5 0.463525 0.573415
      vertex -12.5 1.5 2
    endloop
  endfacet
  facet normal -3.93136e-17 0.309017 0.951056
    outer loop
      vertex -12.5 -1.21352 1.11832
      vertex -12.5 0.463525 0.573415
      vertex -22.5 0.463525 0.573415
    endloop
  endfacet
  facet normal -3.93136e-17 0.309017 0.951056
    outer loop
      vertex -22.5 -1.21352 1.11832
      vertex -12.5 -1.21352 1.11832
      vertex -22.5 0.463525 0.573415
    endloop
  endfacet
  facet normal 6.12323e-17 1 0
    outer loop
      vertex -12.5 -1.21352 2
      vertex -12.5 -1.21352 1.11832
      vertex -22.5 -1.21352 1.11832
    endloop
  endfacet
  facet normal 6.12323e-17 1 0
    outer loop
      vertex -12.5 -1.21352 2
      vertex -22.5 -1.21352 1.11832
      vertex -12.5 -1.21352 2.88168
    endloop
  endfacet
  facet normal 6.12323e-17 1 0
    outer loop
      vertex -22.5 -1.21352 1.11832
      vertex -22.5 -1.21352 2.88168
      vertex -12.5 -1.21352 2.88168
    endloop
  endfacet
  facet normal -1 6.12323e-17 0
    outer loop
      vertex -17.5 -5 2
      vertex -17.5 -10 3
      vertex -17.5 -4.80109 3
    endloop
  endfacet
  facet normal -1 6.12323e-17 0
    outer loop
      vertex -17.5 -4.6194 0.086583
      vertex -17.5 -10 3
      vertex -17.5 -5 2
    endloop
  endfacet
  facet normal -1 6.12323e-17 0
    outer loop
      vertex -17.5 -3.53553 -1.53553
      vertex -17.5 -10 3
      vertex -17.5 -4.6194 0.086583
    endloop
  endfacet
  facet normal -1 6.12323e-17 0
    outer loop
      vertex -17.5 -10 -3
      vertex -17.5 -10 3
      vertex -17.5 -3.53553 -1.53553
    endloop
  endfacet
  facet normal -1 6.12323e-17 0
    outer loop
      vertex -17.5 -10 -3
      vertex -17.5 -3.53553 -1.53553
      vertex -17.5 -1.91342 -2.6194
    endloop
  endfacet
  facet normal -1 6.12323e-17 0
    outer loop
      vertex -17.5 -10 -3
      vertex -17.5 -1.91342 -2.6194
      vertex -17.5 1.53081e-16 -3
    endloop
  endfacet
  facet normal 4.811e-17 0.980785 0.19509
    outer loop
      vertex -17.5 4.6194 3.91342
      vertex -12.5 4.6194 3.91342
      vertex -17.5 5 2
    endloop
  endfacet
  facet normal 4.811e-17 0.980785 0.19509
    outer loop
      vertex -17.5 5 2
      vertex -12.5 4.6194 3.91342
      vertex -12.5 5 2
    endloop
  endfacet
  facet normal 1 -6.12323e-17 6.12323e-17
    outer loop
      vertex -12.5 -1.91342 6.6194
      vertex -12.5 -3.53553 5.53553
      vertex -12.5 -4.6194 3.91342
    endloop
  endfacet
  facet normal 1 -6.12323e-17 6.12323e-17
    outer loop
      vertex -12.5 -0.849368 3
      vertex -12.5 -1.91342 6.6194
      vertex -12.5 -4.80109 3
    endloop
  endfacet
  facet normal 1 -6.12323e-17 6.12323e-17
    outer loop
      vertex -12.5 -4.80109 3
      vertex -12.5 -1.91342 6.6194
      vertex -12.5 -4.6194 3.91342
    endloop
  endfacet
  facet normal 1 -6.12323e-17 6.12323e-17
    outer loop
      vertex -12.5 0.463525 3.42658
      vertex -12.5 -1.91342 6.6194
      vertex -12.5 -0.849368 3
    endloop
  endfacet
  facet normal 1 -6.12323e-17 6.12323e-17
    outer loop
      vertex -12.5 4.6194 0.086583
      vertex -12.5 -1.91342 6.6194
      vertex -12.5 0.463525 3.42658
    endloop
  endfacet
  facet normal 1 -6.12323e-17 6.12323e-17
    outer loop
      vertex -12.5 4.6194 0.086583
      vertex -12.5 0.463525 3.42658
      vertex -12.5 1.5 2
    endloop
  endfacet
  facet normal 1 -6.12323e-17 6.12323e-17
    outer loop
      vertex -12.5 -1.21352 2
      vertex -12.5 -5 2
      vertex -12.5 -1.21352 1.11832
    endloop
  endfacet
  facet normal 1 -6.12323e-17 6.12323e-17
    outer loop
      vertex -12.5 -1.53081e-16 -3
      vertex -12.5 1.5 2
      vertex -12.5 0.463525 0.573415
    endloop
  endfacet
  facet normal 1 -6.12323e-17 6.12323e-17
    outer loop
      vertex -12.5 -5 2
      vertex -12.5 0.463525 0.573415
      vertex -12.5 -1.21352 1.11832
    endloop
  endfacet
  facet normal 1 -6.12323e-17 6.12323e-17
    outer loop
      vertex -12.5 -4.6194 0.086583
      vertex -12.5 0.463525 0.573415
      vertex -12.5 -5 2
    endloop
  endfacet
  facet normal 1 -6.12323e-17 6.12323e-17
    outer loop
      vertex -12.5 -3.53553 -1.53553
      vertex -12.5 0.463525 0.573415
      vertex -12.5 -4.6194 0.086583
    endloop
  endfacet
  facet normal 1 -6.12323e-17 6.12323e-17
    outer loop
      vertex -12.5 -1.91342 -2.6194
      vertex -12.5 0.463525 0.573415
      vertex -12.5 -3.53553 -1.53553
    endloop
  endfacet
  facet normal 1 -6.12323e-17 6.12323e-17
    outer loop
      vertex -12.5 -1.53081e-16 -3
      vertex -12.5 0.463525 0.573415
      vertex -12.5 -1.91342 -2.6194
    endloop
  endfacet
  facet normal 1 -6.12323e-17 6.12323e-17
    outer loop
      vertex -12.5 1.91342 -2.6194
      vertex -12.5 1.5 2
      vertex -12.5 -1.53081e-16 -3
    endloop
  endfacet
  facet normal 1 -6.12323e-17 6.12323e-17
    outer loop
      vertex -12.5 3.53553 -1.53553
      vertex -12.5 1.5 2
      vertex -12.5 1.91342 -2.6194
    endloop
  endfacet
  facet normal 1 -6.12323e-17 6.12323e-17
    outer loop
      vertex -12.5 4.6194 0.086583
      vertex -12.5 1.5 2
      vertex -12.5 3.53553 -1.53553
    endloop
  endfacet
  facet normal 1 -6.12323e-17 6.12323e-17
    outer loop
      vertex -12.5 5 2
      vertex -12.5 -1.91342 6.6194
      vertex -12.5 4.6194 0.086583
    endloop
  endfacet
  facet normal 1 -6.12323e-17 6.12323e-17
    outer loop
      vertex -12.5 4.6194 3.91342
      vertex -12.5 -1.91342 6.6194
      vertex -12.5 5 2
    endloop
  endfacet
  facet normal 1 -6.12323e-17 6.12323e-17
    outer loop
      vertex -12.5 3.53553 5.53553
      vertex -12.5 -1.91342 6.6194
      vertex -12.5 4.6194 3.91342
    endloop
  endfacet
  facet normal 1 -6.12323e-17 6.12323e-17
    outer loop
      vertex -12.5 1.91342 6.6194
      vertex -12.5 -1.91342 6.6194
      vertex -12.5 3.53553 5.53553
    endloop
  endfacet
  facet normal 1 -6.12323e-17 6.12323e-17
    outer loop
      vertex -12.5 -1.53081e-16 7
      vertex -12.5 -1.91342 6.6194
      vertex -12.5 1.91342 6.6194
    endloop
  endfacet
  facet normal 1 -6.12323e-17 0
    outer loop
      vertex -12.5 -5 3
      vertex -12.5 -5 2
      vertex -12.5 -1.21352 2
    endloop
  endfacet
  facet normal 1 -6.12323e-17 0
    outer loop
      vertex -12.5 -0.849368 3
      vertex -12.5 -5 3
      vertex -12.5 -1.21352 2.88168
    endloop
  endfacet
  facet normal 1 -6.12323e-17 0
    outer loop
      vertex -12.5 -1.21352 2.88168
      vertex -12.5 -5 3
      vertex -12.5 -1.21352 2
    endloop
  endfacet
  facet normal 0 0 1
    outer loop
      vertex -15 -10 3
      vertex -12.5 -10 3
      vertex -17.5 -4.80109 3
    endloop
  endfacet
  facet normal 0 0 1
    outer loop
      vertex -17.5 -10 3
      vertex -15 -10 3
      vertex -17.5 -4.80109 3
    endloop
  endfacet
  facet normal 0 0 1
    outer loop
      vertex -12.5 -10 3
      vertex -6 -10 3
      vertex -17.5 -4.80109 3
    endloop
  endfacet
  facet normal 0 0 1
    outer loop
      vertex -6 -10 3
      vertex -12.5 -5 3
      vertex -17.5 -4.80109 3
    endloop
  endfacet
  facet normal 0 0 1
    outer loop
      vertex -6 -10 3
      vertex -6 -5 3
      vertex -12.5 -5 3
    endloop
  endfacet
  facet normal 0 0 1
    outer loop
      vertex -12.5 -5 3
      vertex -12.5 -4.80109 3
      vertex -17.5 -4.80109 3
    endloop
  endfacet
  facet normal 0 0 1
    outer loop
      vertex -12.5 -5 3
      vertex -12.5 -0.849368 3
      vertex -12.5 -4.80109 3
    endloop
  endfacet
  facet normal 1.6894e-17 0.83147 0.55557
    outer loop
      vertex -17.5 3.53553 5.53553
      vertex -12.5 3.53553 5.53553
      vertex -17.5 4.6194 3.91342
    endloop
  endfacet
  facet normal 1.6894e-17 0.83147 0.55557
    outer loop
      vertex -17.5 4.6194 3.91342
      vertex -12.5 3.53553 5.53553
      vertex -12.5 4.6194 3.91342
    endloop
  endfacet
  facet normal -1.6894e-17 0.55557 0.83147
    outer loop
      vertex -17.5 3.53553 5.53553
      vertex -17.5 1.91342 6.6194
      vertex -12.5 1.91342 6.6194
    endloop
  endfacet
  facet normal -1.6894e-17 0.55557 0.83147
    outer loop
      vertex -12.5 3.53553 5.53553
      vertex -17.5 3.53553 5.53553
      vertex -12.5 1.91342 6.6194
    endloop
  endfacet
  facet normal -4.811e-17 0.19509 0.980785
    outer loop
      vertex -17.5 1.91342 6.6194
      vertex -17.5 1.53081e-16 7
      vertex -12.5 -1.53081e-16 7
    endloop
  endfacet
  facet normal -4.811e-17 0.19509 0.980785
    outer loop
      vertex -12.5 1.91342 6.6194
      vertex -17.5 1.91342 6.6194
      vertex -12.5 -1.53081e-16 7
    endloop
  endfacet
  facet normal -7.20016e-17 -0.19509 0.980785
    outer loop
      vertex -17.5 1.53081e-16 7
      vertex -17.5 -1.91342 6.6194
      vertex -12.5 -1.91342 6.6194
    endloop
  endfacet
  facet normal -7.20016e-17 -0.19509 0.980785
    outer loop
      vertex -12.5 -1.53081e-16 7
      vertex -17.5 1.53081e-16 7
      vertex -12.5 -1.91342 6.6194
    endloop
  endfacet
  facet normal -8.49317e-17 -0.55557 0.83147
    outer loop
      vertex -17.5 -1.91342 6.6194
      vertex -17.5 -3.53553 5.53553
      vertex -12.5 -3.53553 5.53553
    endloop
  endfacet
  facet normal -8.49317e-17 -0.55557 0.83147
    outer loop
      vertex -12.5 -1.91342 6.6194
      vertex -17.5 -1.91342 6.6194
      vertex -12.5 -3.53553 5.53553
    endloop
  endfacet
  facet normal -8.49317e-17 -0.83147 0.55557
    outer loop
      vertex -12.5 -3.53553 5.53553
      vertex -17.5 -3.53553 5.53553
      vertex -17.5 -4.6194 3.91342
    endloop
  endfacet
  facet normal -8.49317e-17 -0.83147 0.55557
    outer loop
      vertex -12.5 -4.6194 3.91342
      vertex -12.5 -3.53553 5.53553
      vertex -17.5 -4.6194 3.91342
    endloop
  endfacet
  facet normal -7.20016e-17 -0.980785 0.19509
    outer loop
      vertex -17.5 -4.80109 3
      vertex -17.5 -4.6194 3.91342
      vertex -17.5 -5 2
    endloop
  endfacet
  facet normal -7.20016e-17 -0.980785 0.19509
    outer loop
      vertex -12.5 -4.6194 3.91342
      vertex -17.5 -4.6194 3.91342
      vertex -17.5 -4.80109 3
    endloop
  endfacet
  facet normal -7.20016e-17 -0.980785 0.19509
    outer loop
      vertex -17.5 -4.80109 3
      vertex -12.5 -4.80109 3
      vertex -12.5 -4.6194 3.91342
    endloop
  endfacet
  facet normal 0 0 -1
    outer loop
      vertex -17.5 -10 -3
      vertex -17.5 1.53081e-16 -3
      vertex -17.5 -6.16509e-16 -3
    endloop
  endfacet
  facet normal 0 0 -1
    outer loop
      vertex -3 -10 -3
      vertex -17.5 -10 -3
      vertex 3 -10 -3
    endloop
  endfacet
  facet normal 0 0 -1
    outer loop
      vertex -17.5 -10 -3
      vertex -15 -1.8747e-32 -3
      vertex -12.5 -1.53081e-16 -3
    endloop
  endfacet
  facet normal 0 0 -1
    outer loop
      vertex -17.5 -10 -3
      vertex -12.5 -1.53081e-16 -3
      vertex -12.5 -5 -3
    endloop
  endfacet
  facet normal 0 0 -1
    outer loop
      vertex -17.5 -10 -3
      vertex -12.5 -5 -3
      vertex 12.5 -5 -3
    endloop
  endfacet
  facet normal 0 0 -1
    outer loop
      vertex 12.5 -1.53081e-16 -3
      vertex 15 -1.8747e-32 -3
      vertex 12.5 -5 -3
    endloop
  endfacet
  facet normal 0 0 -1
    outer loop
      vertex 12.5 -5 -3
      vertex 15 -1.8747e-32 -3
      vertex 17.5 -6.16509e-16 -3
    endloop
  endfacet
  facet normal 0 0 -1
    outer loop
      vertex 12.5 -5 -3
      vertex 17.5 -10 -3
      vertex -17.5 -10 -3
    endloop
  endfacet
  facet normal 0 0 -1
    outer loop
      vertex 17.5 -6.16509e-16 -3
      vertex 17.5 1.53081e-16 -3
      vertex 17.5 -10 -3
    endloop
  endfacet
  facet normal 0 0 -1
    outer loop
      vertex 17.5 -6.16509e-16 -3
      vertex 17.5 -10 -3
      vertex 12.5 -5 -3
    endloop
  endfacet
  facet normal 0 0 -1
    outer loop
      vertex -17.5 -10 -3
      vertex 17.5 -10 -3
      vertex 15 -10 -3
    endloop
  endfacet
  facet normal 0 0 -1
    outer loop
      vertex -17.5 -10 -3
      vertex 15 -10 -3
      vertex 12.5 -10 -3
    endloop
  endfacet
  facet normal 0 0 -1
    outer loop
      vertex -17.5 -10 -3
      vertex 12.5 -10 -3
      vertex 6 -10 -3
    endloop
  endfacet
  facet normal 0 0 -1
    outer loop
      vertex -17.5 -10 -3
      vertex 6 -10 -3
      vertex 3 -10 -3
    endloop
  endfacet
  facet normal 0 0 -1
    outer loop
      vertex 3 -10 -3
      vertex 6 -35 -3
      vertex 3 -35 -3
    endloop
  endfacet
  facet normal 0 0 -1
    outer loop
      vertex -6 -10 -3
      vertex -3 -35 -3
      vertex -6 -35 -3
    endloop
  endfacet
  facet normal 0 0 -1
    outer loop
      vertex -3 -10 -3
      vertex -6 -10 -3
      vertex -17.5 -10 -3
    endloop
  endfacet
  facet normal 0 0 -1
    outer loop
      vertex -6 -10 -3
      vertex -12.5 -10 -3
      vertex -17.5 -10 -3
    endloop
  endfacet
  facet normal 0 0 -1
    outer loop
      vertex -12.5 -10 -3
      vertex -15 -10 -3
      vertex -17.5 -10 -3
    endloop
  endfacet
  facet normal 0 0 -1
    outer loop
      vertex -3 -35 -3
      vertex -6 -10 -3
      vertex -3 -10 -3
    endloop
  endfacet
  facet normal 0 0 -1
    outer loop
      vertex -15 -1.8747e-32 -3
      vertex -17.5 -10 -3
      vertex -17.5 -6.16509e-16 -3
    endloop
  endfacet
  facet normal 0 0 -1
    outer loop
      vertex 6 -35 -3
      vertex 3 -10 -3
      vertex 6 -10 -3
    endloop
  endfacet
  facet normal 4.811e-17 -0.19509 -0.980785
    outer loop
      vertex -15 -1.8747e-32 -3
      vertex -17.5 -6.16509e-16 -3
      vertex -17.5 1.53081e-16 -3
    endloop
  endfacet
  facet normal 7.20016e-17 0.19509 -0.980785
    outer loop
      vertex -17.5 1.53081e-16 -3
      vertex -17.5 1.91342 -2.6194
      vertex -15 -1.8747e-32 -3
    endloop
  endfacet
  facet normal 7.20016e-17 0.19509 -0.980785
    outer loop
      vertex -15 -1.8747e-32 -3
      vertex -17.5 1.91342 -2.6194
      vertex -12.5 1.91342 -2.6194
    endloop
  endfacet
  facet normal 7.20016e-17 0.19509 -0.980785
    outer loop
      vertex -15 -1.8747e-32 -3
      vertex -12.5 1.91342 -2.6194
      vertex -12.5 -1.53081e-16 -3
    endloop
  endfacet
  facet normal 8.49317e-17 0.55557 -0.83147
    outer loop
      vertex -17.5 1.91342 -2.6194
      vertex -17.5 3.53553 -1.53553
      vertex -12.5 1.91342 -2.6194
    endloop
  endfacet
  facet normal 8.49317e-17 0.55557 -0.83147
    outer loop
      vertex -12.5 1.91342 -2.6194
      vertex -17.5 3.53553 -1.53553
      vertex -12.5 3.53553 -1.53553
    endloop
  endfacet
  facet normal 8.49317e-17 0.83147 -0.55557
    outer loop
      vertex -17.5 4.6194 0.086583
      vertex -12.5 4.6194 0.086583
      vertex -17.5 3.53553 -1.53553
    endloop
  endfacet
  facet normal 8.49317e-17 0.83147 -0.55557
    outer loop
      vertex -17.5 3.53553 -1.53553
      vertex -12.5 4.6194 0.086583
      vertex -12.5 3.53553 -1.53553
    endloop
  endfacet
  facet normal 7.20016e-17 0.980785 -0.19509
    outer loop
      vertex -17.5 5 2
      vertex -12.5 5 2
      vertex -17.5 4.6194 0.086583
    endloop
  endfacet
  facet normal 7.20016e-17 0.980785 -0.19509
    outer loop
      vertex -17.5 4.6194 0.086583
      vertex -12.5 5 2
      vertex -12.5 4.6194 0.086583
    endloop
  endfacet
  facet normal 0 1 0
    outer loop
      vertex -12.5 -5 -3
      vertex -12.5 -5 2
      vertex 12.5 -5 -3
    endloop
  endfacet
  facet normal 0 1 0
    outer loop
      vertex 12.5 -5 -3
      vertex -12.5 -5 2
      vertex -12.5 -5 3
    endloop
  endfacet
  facet normal 0 1 0
    outer loop
      vertex 12.5 -5 -3
      vertex -12.5 -5 3
      vertex -6 -5 3
    endloop
  endfacet
  facet normal 0 1 0
    outer loop
      vertex -3 -5 3
      vertex -6 -5 3
      vertex -6 -5 6
    endloop
  endfacet
  facet normal 0 1 0
    outer loop
      vertex 12.5 -5 -3
      vertex -6 -5 3
      vertex -3 -5 3
    endloop
  endfacet
  facet normal 0 1 0
    outer loop
      vertex 3 -5 3
      vertex 12.5 -5 -3
      vertex -3 -5 3
    endloop
  endfacet
  facet normal 0 1 0
    outer loop
      vertex 6 -5 3
      vertex 3 -5 6
      vertex 6 -5 6
    endloop
  endfacet
  facet normal 0 1 0
    outer loop
      vertex 6 -5 3
      vertex 3 -5 3
      vertex 3 -5 6
    endloop
  endfacet
  facet normal 0 1 0
    outer loop
      vertex 12.5 -5 2
      vertex 12.5 -5 -3
      vertex 6 -5 3
    endloop
  endfacet
  facet normal 0 1 0
    outer loop
      vertex 12.5 -5 -3
      vertex 3 -5 3
      vertex 6 -5 3
    endloop
  endfacet
  facet normal 0 1 0
    outer loop
      vertex -3 -5 3
      vertex -6 -5 6
      vertex -3 -5 6
    endloop
  endfacet
  facet normal 0 1 0
    outer loop
      vertex 12.5 -5 3
      vertex 12.5 -5 2
      vertex 6 -5 3
    endloop
  endfacet
  facet normal -1 0 0
    outer loop
      vertex -6 -5 6
      vertex -6 -5 3
      vertex -6 -35 6
    endloop
  endfacet
  facet normal -1 0 0
    outer loop
      vertex -6 -14.1322 3.80194
      vertex -6 -5 3
      vertex -6 -10 3
    endloop
  endfacet
  facet normal -1 0 0
    outer loop
      vertex -6 -13.4363 0.75302
      vertex -6 -10 3
      vertex -6 -10 -3
    endloop
  endfacet
  facet normal -1 0 0
    outer loop
      vertex -6 -30 -1
      vertex -6 -10 -3
      vertex -6 -35 -3
    endloop
  endfacet
  facet normal -1 0 0
    outer loop
      vertex -6 -30.8678 2.80194
      vertex -6 -35 6
      vertex -6 -29.1322 2.80194
    endloop
  endfacet
  facet normal -1 0 0
    outer loop
      vertex -6 -35 6
      vertex -6 -31.5637 -0.24698
      vertex -6 -35 -3
    endloop
  endfacet
  facet normal -1 0 0
    outer loop
      vertex -6 -31.5637 -0.24698
      vertex -6 -30 -1
      vertex -6 -35 -3
    endloop
  endfacet
  facet normal -1 0 0
    outer loop
      vertex -6 -28.0501 1.44504
      vertex -6 -10 -3
      vertex -6 -28.4363 -0.24698
    endloop
  endfacet
  facet normal -1 0 0
    outer loop
      vertex -6 -29.1322 2.80194
      vertex -6 -10 -3
      vertex -6 -28.0501 1.44504
    endloop
  endfacet
  facet normal -1 0 0
    outer loop
      vertex -6 -35 6
      vertex -6 -10 -3
      vertex -6 -29.1322 2.80194
    endloop
  endfacet
  facet normal -1 0 0
    outer loop
      vertex -6 -31.9499 1.44504
      vertex -6 -35 6
      vertex -6 -30.8678 2.80194
    endloop
  endfacet
  facet normal -1 0 0
    outer loop
      vertex -6 -13.0501 2.44504
      vertex -6 -10 3
      vertex -6 -13.4363 0.75302
    endloop
  endfacet
  facet normal -1 0 0
    outer loop
      vertex -6 -35 6
      vertex -6 -31.9499 1.44504
      vertex -6 -31.5637 -0.24698
    endloop
  endfacet
  facet normal -1 0 0
    outer loop
      vertex -6 -14.1322 3.80194
      vertex -6 -10 3
      vertex -6 -13.0501 2.44504
    endloop
  endfacet
  facet normal -1 0 0
    outer loop
      vertex -6 -35 6
      vertex -6 -16.5637 0.75302
      vertex -6 -10 -3
    endloop
  endfacet
  facet normal -1 0 0
    outer loop
      vertex -6 -16.5637 0.75302
      vertex -6 -15 1.01033e-15
      vertex -6 -10 -3
    endloop
  endfacet
  facet normal -1 0 0
    outer loop
      vertex -6 -15 1.01033e-15
      vertex -6 -13.4363 0.75302
      vertex -6 -10 -3
    endloop
  endfacet
  facet normal -1 0 0
    outer loop
      vertex -6 -35 6
      vertex -6 -5 3
      vertex -6 -14.1322 3.80194
    endloop
  endfacet
  facet normal -1 0 0
    outer loop
      vertex -6 -16.9499 2.44504
      vertex -6 -35 6
      vertex -6 -15.8678 3.80194
    endloop
  endfacet
  facet normal -1 0 0
    outer loop
      vertex -6 -35 6
      vertex -6 -14.1322 3.80194
      vertex -6 -15.8678 3.80194
    endloop
  endfacet
  facet normal -1 0 0
    outer loop
      vertex -6 -35 6
      vertex -6 -16.9499 2.44504
      vertex -6 -16.5637 0.75302
    endloop
  endfacet
  facet normal -1 0 0
    outer loop
      vertex -6 -28.4363 -0.24698
      vertex -6 -10 -3
      vertex -6 -30 -1
    endloop
  endfacet
  facet normal 0 -1 0
    outer loop
      vertex -12.5 -10 3
      vertex -12.5 -10 -3
      vertex -6 -10 -3
    endloop
  endfacet
  facet normal 0 -1 0
    outer loop
      vertex -6 -10 3
      vertex -12.5 -10 3
      vertex -6 -10 -3
    endloop
  endfacet
  facet normal -6.12323e-17 -1 0
    outer loop
      vertex -15 -10 3
      vertex -15 -10 -3
      vertex -12.5 -10 -3
    endloop
  endfacet
  facet normal -6.12323e-17 -1 0
    outer loop
      vertex -12.5 -10 3
      vertex -15 -10 3
      vertex -12.5 -10 -3
    endloop
  endfacet
  facet normal 0 -1 0
    outer loop
      vertex -17.5 -10 3
      vertex -17.5 -10 -3
      vertex -15 -10 -3
    endloop
  endfacet
  facet normal 0 -1 0
    outer loop
      vertex -15 -10 3
      vertex -17.5 -10 3
      vertex -15 -10 -3
    endloop
  endfacet
  facet normal 0 -1 0
    outer loop
      vertex -3 -35 -3
      vertex -3 -35 6
      vertex -6 -35 6
    endloop
  endfacet
  facet normal 0 -1 0
    outer loop
      vertex -6 -35 -3
      vertex -3 -35 -3
      vertex -6 -35 6
    endloop
  endfacet
  facet normal 1 0 0
    outer loop
      vertex -3 -5 6
      vertex -3 -10 3
      vertex -3 -5 3
    endloop
  endfacet
  facet normal 1 0 0
    outer loop
      vertex -3 -14.1322 3.80194
      vertex -3 -10 3
      vertex -3 -5 6
    endloop
  endfacet
  facet normal 1 0 0
    outer loop
      vertex -3 -29.1322 2.80194
      vertex -3 -10 -3
      vertex -3 -35 6
    endloop
  endfacet
  facet normal 1 0 0
    outer loop
      vertex -3 -35 -3
      vertex -3 -31.9499 1.44504
      vertex -3 -35 6
    endloop
  endfacet
  facet normal 1 0 0
    outer loop
      vertex -3 -31.9499 1.44504
      vertex -3 -30.8678 2.80194
      vertex -3 -35 6
    endloop
  endfacet
  facet normal 1 0 0
    outer loop
      vertex -3 -30.8678 2.80194
      vertex -3 -29.1322 2.80194
      vertex -3 -35 6
    endloop
  endfacet
  facet normal 1 0 0
    outer loop
      vertex -3 -28.0501 1.44504
      vertex -3 -28.4363 -0.24698
      vertex -3 -10 -3
    endloop
  endfacet
  facet normal 1 0 0
    outer loop
      vertex -3 -30 -1
      vertex -3 -31.5637 -0.24698
      vertex -3 -35 -3
    endloop
  endfacet
  facet normal 1 0 0
    outer loop
      vertex -3 -30 -1
      vertex -3 -10 -3
      vertex -3 -28.4363 -0.24698
    endloop
  endfacet
  facet normal 1 0 0
    outer loop
      vertex -3 -16.9499 2.44504
      vertex -3 -15.8678 3.80194
      vertex -3 -35 6
    endloop
  endfacet
  facet normal 1 0 0
    outer loop
      vertex -3 -35 -3
      vertex -3 -10 -3
      vertex -3 -30 -1
    endloop
  endfacet
  facet normal 1 0 0
    outer loop
      vertex -3 -35 -3
      vertex -3 -31.5637 -0.24698
      vertex -3 -31.9499 1.44504
    endloop
  endfacet
  facet normal 1 0 0
    outer loop
      vertex -3 -13.4363 0.75302
      vertex -3 -15 1.19403e-15
      vertex -3 -10 -3
    endloop
  endfacet
  facet normal 1 0 0
    outer loop
      vertex -3 -16.5637 0.75302
      vertex -3 -16.9499 2.44504
      vertex -3 -35 6
    endloop
  endfacet
  facet normal 1 0 0
    outer loop
      vertex -3 -35 6
      vertex -3 -15.8678 3.80194
      vertex -3 -5 6
    endloop
  endfacet
  facet normal 1 0 0
    outer loop
      vertex -3 -15.8678 3.80194
      vertex -3 -14.1322 3.80194
      vertex -3 -5 6
    endloop
  endfacet
  facet normal 1 0 0
    outer loop
      vertex -3 -10 -3
      vertex -3 -10 3
      vertex -3 -13.0501 2.44504
    endloop
  endfacet
  facet normal 1 0 0
    outer loop
      vertex -3 -10 -3
      vertex -3 -13.0501 2.44504
      vertex -3 -13.4363 0.75302
    endloop
  endfacet
  facet normal 1 0 0
    outer loop
      vertex -3 -10 -3
      vertex -3 -15 1.19403e-15
      vertex -3 -35 6
    endloop
  endfacet
  facet normal 1 0 0
    outer loop
      vertex -3 -15 1.19403e-15
      vertex -3 -16.5637 0.75302
      vertex -3 -35 6
    endloop
  endfacet
  facet normal 1 0 0
    outer loop
      vertex -3 -29.1322 2.80194
      vertex -3 -28.0501 1.44504
      vertex -3 -10 -3
    endloop
  endfacet
  facet normal 1 0 0
    outer loop
      vertex -3 -14.1322 3.80194
      vertex -3 -13.0501 2.44504
      vertex -3 -10 3
    endloop
  endfacet
  facet normal 0 -1 0
    outer loop
      vertex -3 -10 3
      vertex -3 -10 -3
      vertex 3 -10 -3
    endloop
  endfacet
  facet normal 0 -1 0
    outer loop
      vertex 3 -10 3
      vertex -3 -10 3
      vertex 3 -10 -3
    endloop
  endfacet
  facet normal -1 0 0
    outer loop
      vertex 3 -29.1322 2.80194
      vertex 3 -35 6
      vertex 3 -10 -3
    endloop
  endfacet
  facet normal -1 0 0
    outer loop
      vertex 3 -14.1322 3.80194
      vertex 3 -35 6
      vertex 3 -5 6
    endloop
  endfacet
  facet normal -1 0 0
    outer loop
      vertex 3 -13.4363 0.75302
      vertex 3 -10 -3
      vertex 3 -15 1.56142e-15
    endloop
  endfacet
  facet normal -1 0 0
    outer loop
      vertex 3 -28.4363 -0.24698
      vertex 3 -10 -3
      vertex 3 -30 -1
    endloop
  endfacet
  facet normal -1 0 0
    outer loop
      vertex 3 -35 -3
      vertex 3 -35 6
      vertex 3 -31.9499 1.44504
    endloop
  endfacet
  facet normal -1 0 0
    outer loop
      vertex 3 -35 -3
      vertex 3 -31.9499 1.44504
      vertex 3 -31.5637 -0.24698
    endloop
  endfacet
  facet normal -1 0 0
    outer loop
      vertex 3 -35 -3
      vertex 3 -31.5637 -0.24698
      vertex 3 -30 -1
    endloop
  endfacet
  facet normal -1 0 0
    outer loop
      vertex 3 -35 -3
      vertex 3 -30 -1
      vertex 3 -10 -3
    endloop
  endfacet
  facet normal -1 0 0
    outer loop
      vertex 3 -28.0501 1.44504
      vertex 3 -10 -3
      vertex 3 -28.4363 -0.24698
    endloop
  endfacet
  facet normal -1 0 0
    outer loop
      vertex 3 -16.9499 2.44504
      vertex 3 -35 6
      vertex 3 -15.8678 3.80194
    endloop
  endfacet
  facet normal -1 0 0
    outer loop
      vertex 3 -30.8678 2.80194
      vertex 3 -35 6
      vertex 3 -29.1322 2.80194
    endloop
  endfacet
  facet normal -1 0 0
    outer loop
      vertex 3 -28.0501 1.44504
      vertex 3 -29.1322 2.80194
      vertex 3 -10 -3
    endloop
  endfacet
  facet normal -1 0 0
    outer loop
      vertex 3 -31.9499 1.44504
      vertex 3 -35 6
      vertex 3 -30.8678 2.80194
    endloop
  endfacet
  facet normal -1 0 0
    outer loop
      vertex 3 -16.5637 0.75302
      vertex 3 -35 6
      vertex 3 -16.9499 2.44504
    endloop
  endfacet
  facet normal -1 0 0
    outer loop
      vertex 3 -10 -3
      vertex 3 -35 6
      vertex 3 -16.5637 0.75302
    endloop
  endfacet
  facet normal -1 0 0
    outer loop
      vertex 3 -10 -3
      vertex 3 -16.5637 0.75302
      vertex 3 -15 1.56142e-15
    endloop
  endfacet
  facet normal -1 0 0
    outer loop
      vertex 3 -14.1322 3.80194
      vertex 3 -10 3
      vertex 3 -13.0501 2.44504
    endloop
  endfacet
  facet normal -1 0 0
    outer loop
      vertex 3 -10 -3
      vertex 3 -13.4363 0.75302
      vertex 3 -10 3
    endloop
  endfacet
  facet normal -1 0 0
    outer loop
      vertex 3 -13.4363 0.75302
      vertex 3 -13.0501 2.44504
      vertex 3 -10 3
    endloop
  endfacet
  facet normal -1 0 0
    outer loop
      vertex 3 -15.8678 3.80194
      vertex 3 -35 6
      vertex 3 -14.1322 3.80194
    endloop
  endfacet
  facet normal -1 0 0
    outer loop
      vertex 3 -10 3
      vertex 3 -14.1322 3.80194
      vertex 3 -5 6
    endloop
  endfacet
  facet normal -1 0 0
    outer loop
      vertex 3 -10 3
      vertex 3 -5 6
      vertex 3 -5 3
    endloop
  endfacet
  facet normal 0 -1 0
    outer loop
      vertex 3 -35 6
      vertex 3 -35 -3
      vertex 6 -35 -3
    endloop
  endfacet
  facet normal 0 -1 0
    outer loop
      vertex 6 -35 6
      vertex 3 -35 6
      vertex 6 -35 -3
    endloop
  endfacet
  facet normal 1 0 0
    outer loop
      vertex 6 -30 -1
      vertex 6 -35 -3
      vertex 6 -10 -3
    endloop
  endfacet
  facet normal 1 0 0
    outer loop
      vertex 6 -16.5637 0.75302
      vertex 6 -35 6
      vertex 6 -10 -3
    endloop
  endfacet
  facet normal 1 0 0
    outer loop
      vertex 6 -5 6
      vertex 6 -35 6
      vertex 6 -5 3
    endloop
  endfacet
  facet normal 1 0 0
    outer loop
      vertex 6 -16.9499 2.44504
      vertex 6 -15.8678 3.80194
      vertex 6 -35 6
    endloop
  endfacet
  facet normal 1 0 0
    outer loop
      vertex 6 -35 6
      vertex 6 -35 -3
      vertex 6 -31.5637 -0.24698
    endloop
  endfacet
  facet normal 1 0 0
    outer loop
      vertex 6 -28.4363 -0.24698
      vertex 6 -30 -1
      vertex 6 -10 -3
    endloop
  endfacet
  facet normal 1 0 0
    outer loop
      vertex 6 -35 6
      vertex 6 -31.5637 -0.24698
      vertex 6 -31.9499 1.44504
    endloop
  endfacet
  facet normal 1 0 0
    outer loop
      vertex 6 -28.0501 1.44504
      vertex 6 -28.4363 -0.24698
      vertex 6 -10 -3
    endloop
  endfacet
  facet normal 1 0 0
    outer loop
      vertex 6 -35 6
      vertex 6 -31.9499 1.44504
      vertex 6 -30.8678 2.80194
    endloop
  endfacet
  facet normal 1 0 0
    outer loop
      vertex 6 -35 6
      vertex 6 -29.1322 2.80194
      vertex 6 -10 -3
    endloop
  endfacet
  facet normal 1 0 0
    outer loop
      vertex 6 -35 6
      vertex 6 -30.8678 2.80194
      vertex 6 -29.1322 2.80194
    endloop
  endfacet
  facet normal 1 0 0
    outer loop
      vertex 6 -13.0501 2.44504
      vertex 6 -13.4363 0.75302
      vertex 6 -10 3
    endloop
  endfacet
  facet normal 1 0 0
    outer loop
      vertex 6 -31.5637 -0.24698
      vertex 6 -35 -3
      vertex 6 -30 -1
    endloop
  endfacet
  facet normal 1 0 0
    outer loop
      vertex 6 -15 1.74512e-15
      vertex 6 -16.5637 0.75302
      vertex 6 -10 -3
    endloop
  endfacet
  facet normal 1 0 0
    outer loop
      vertex 6 -16.9499 2.44504
      vertex 6 -35 6
      vertex 6 -16.5637 0.75302
    endloop
  endfacet
  facet normal 1 0 0
    outer loop
      vertex 6 -14.1322 3.80194
      vertex 6 -35 6
      vertex 6 -15.8678 3.80194
    endloop
  endfacet
  facet normal 1 0 0
    outer loop
      vertex 6 -5 3
      vertex 6 -35 6
      vertex 6 -14.1322 3.80194
    endloop
  endfacet
  facet normal 1 0 0
    outer loop
      vertex 6 -10 3
      vertex 6 -13.4363 0.75302
      vertex 6 -10 -3
    endloop
  endfacet
  facet normal 1 0 0
    outer loop
      vertex 6 -13.4363 0.75302
      vertex 6 -15 1.74512e-15
      vertex 6 -10 -3
    endloop
  endfacet
  facet normal 1 0 0
    outer loop
      vertex 6 -29.1322 2.80194
      vertex 6 -28.0501 1.44504
      vertex 6 -10 -3
    endloop
  endfacet
  facet normal 1 0 0
    outer loop
      vertex 6 -14.1322 3.80194
      vertex 6 -10 3
      vertex 6 -5 3
    endloop
  endfacet
  facet normal 1 0 0
    outer loop
      vertex 6 -14.1322 3.80194
      vertex 6 -13.0501 2.44504
      vertex 6 -10 3
    endloop
  endfacet
  facet normal 0 -1 0
    outer loop
      vertex 6 -10 3
      vertex 6 -10 -3
      vertex 12.5 -10 -3
    endloop
  endfacet
  facet normal 0 -1 0
    outer loop
      vertex 12.5 -10 3
      vertex 6 -10 3
      vertex 12.5 -10 -3
    endloop
  endfacet
  facet normal 6.12323e-17 -1 0
    outer loop
      vertex 15 -10 -3
      vertex 15 -10 3
      vertex 12.5 -10 3
    endloop
  endfacet
  facet normal 6.12323e-17 -1 0
    outer loop
      vertex 12.5 -10 -3
      vertex 15 -10 -3
      vertex 12.5 -10 3
    endloop
  endfacet
  facet normal 0 -1 0
    outer loop
      vertex 15 -10 3
      vertex 15 -10 -3
      vertex 17.5 -10 -3
    endloop
  endfacet
  facet normal 0 -1 0
    outer loop
      vertex 17.5 -10 3
      vertex 15 -10 3
      vertex 17.5 -10 -3
    endloop
  endfacet
  facet normal 1 6.12323e-17 0
    outer loop
      vertex 17.5 -10 -3
      vertex 17.5 1.53081e-16 -3
      vertex 17.5 -1.91342 -2.6194
    endloop
  endfacet
  facet normal 1 6.12323e-17 0
    outer loop
      vertex 17.5 -1.91342 -2.6194
      vertex 17.5 -3.53553 -1.53553
      vertex 17.5 -10 -3
    endloop
  endfacet
  facet normal 1 6.12323e-17 0
    outer loop
      vertex 17.5 -10 3
      vertex 17.5 -4.6194 0.086583
      vertex 17.5 -5 2
    endloop
  endfacet
  facet normal 1 6.12323e-17 0
    outer loop
      vertex 17.5 -10 3
      vertex 17.5 -5 2
      vertex 17.5 -4.80109 3
    endloop
  endfacet
  facet normal 1 6.12323e-17 0
    outer loop
      vertex 17.5 -3.53553 -1.53553
      vertex 17.5 -4.6194 0.086583
      vertex 17.5 -10 3
    endloop
  endfacet
  facet normal 1 6.12323e-17 0
    outer loop
      vertex 17.5 -3.53553 -1.53553
      vertex 17.5 -10 3
      vertex 17.5 -10 -3
    endloop
  endfacet
  facet normal -4.811e-17 -0.19509 -0.980785
    outer loop
      vertex 17.5 1.53081e-16 -3
      vertex 17.5 -6.16509e-16 -3
      vertex 15 -1.8747e-32 -3
    endloop
  endfacet
  facet normal -7.20016e-17 0.19509 -0.980785
    outer loop
      vertex 17.5 1.53081e-16 -3
      vertex 15 -1.8747e-32 -3
      vertex 17.5 1.91342 -2.6194
    endloop
  endfacet
  facet normal -7.20016e-17 0.19509 -0.980785
    outer loop
      vertex 17.5 1.91342 -2.6194
      vertex 15 -1.8747e-32 -3
      vertex 12.5 -1.53081e-16 -3
    endloop
  endfacet
  facet normal -7.20016e-17 0.19509 -0.980785
    outer loop
      vertex 17.5 1.91342 -2.6194
      vertex 12.5 -1.53081e-16 -3
      vertex 12.5 1.91342 -2.6194
    endloop
  endfacet
  facet normal -1 -6.12323e-17 0
    outer loop
      vertex 12.5 -5 2
      vertex 12.5 -4.6194 0.086583
      vertex 12.5 -5 -3
    endloop
  endfacet
  facet normal -1 -6.12323e-17 0
    outer loop
      vertex 12.5 -5 -3
      vertex 12.5 -4.6194 0.086583
      vertex 12.5 -3.53553 -1.53553
    endloop
  endfacet
  facet normal -1 -6.12323e-17 0
    outer loop
      vertex 12.5 -3.53553 -1.53553
      vertex 12.5 -1.91342 -2.6194
      vertex 12.5 -5 -3
    endloop
  endfacet
  facet normal -1 -6.12323e-17 0
    outer loop
      vertex 12.5 -1.91342 -2.6194
      vertex 12.5 -1.53081e-16 -3
      vertex 12.5 -5 -3
    endloop
  endfacet
  facet normal 1 -6.12323e-17 0
    outer loop
      vertex -12.5 -1.91342 -2.6194
      vertex -12.5 -5 -3
      vertex -12.5 -1.53081e-16 -3
    endloop
  endfacet
  facet normal 1 -6.12323e-17 0
    outer loop
      vertex -12.5 -3.53553 -1.53553
      vertex -12.5 -5 -3
      vertex -12.5 -1.91342 -2.6194
    endloop
  endfacet
  facet normal 1 -6.12323e-17 0
    outer loop
      vertex -12.5 -4.6194 0.086583
      vertex -12.5 -5 -3
      vertex -12.5 -3.53553 -1.53553
    endloop
  endfacet
  facet normal 1 -6.12323e-17 0
    outer loop
      vertex -12.5 -5 2
      vertex -12.5 -5 -3
      vertex -12.5 -4.6194 0.086583
    endloop
  endfacet
  facet normal -1 -6.12323e-17 6.12323e-17
    outer loop
      vertex 12.5 -1.53081e-16 -3
      vertex 12.5 -1.91342 -2.6194
      vertex 12.5 1.91342 -2.6194
    endloop
  endfacet
  facet normal -1 -6.12323e-17 6.12323e-17
    outer loop
      vertex 12.5 1.91342 -2.6194
      vertex 12.5 -1.91342 -2.6194
      vertex 12.5 -3.53553 -1.53553
    endloop
  endfacet
  facet normal -1 -6.12323e-17 6.12323e-17
    outer loop
      vertex 12.5 1.91342 -2.6194
      vertex 12.5 -3.53553 -1.53553
      vertex 12.5 -4.6194 0.086583
    endloop
  endfacet
  facet normal -1 -6.12323e-17 6.12323e-17
    outer loop
      vertex 12.5 1.91342 -2.6194
      vertex 12.5 -4.6194 0.086583
      vertex 12.5 -5 2
    endloop
  endfacet
  facet normal -1 -6.12323e-17 6.12323e-17
    outer loop
      vertex 12.5 -1.21352 1.11832
      vertex 12.5 -5 2
      vertex 12.5 -1.21352 2
    endloop
  endfacet
  facet normal -1 -6.12323e-17 6.12323e-17
    outer loop
      vertex 12.5 1.91342 -2.6194
      vertex 12.5 -5 2
      vertex 12.5 -1.21352 1.11832
    endloop
  endfacet
  facet normal -1 -6.12323e-17 6.12323e-17
    outer loop
      vertex 12.5 -4.80109 3
      vertex 12.5 0.463525 3.42658
      vertex 12.5 -0.849368 3
    endloop
  endfacet
  facet normal -1 -6.12323e-17 6.12323e-17
    outer loop
      vertex 12.5 1.91342 -2.6194
      vertex 12.5 0.463525 0.573415
      vertex 12.5 1.5 2
    endloop
  endfacet
  facet normal -1 -6.12323e-17 6.12323e-17
    outer loop
      vertex 12.5 0.463525 3.42658
      vertex 12.5 -4.80109 3
      vertex 12.5 -4.6194 3.91342
    endloop
  endfacet
  facet normal -1 -6.12323e-17 6.12323e-17
    outer loop
      vertex 12.5 0.463525 3.42658
      vertex 12.5 -4.6194 3.91342
      vertex 12.5 -3.53553 5.53553
    endloop
  endfacet
  facet normal -1 -6.12323e-17 6.12323e-17
    outer loop
      vertex 12.5 0.463525 3.42658
      vertex 12.5 -3.53553 5.53553
      vertex 12.5 -1.91342 6.6194
    endloop
  endfacet
  facet normal -1 -6.12323e-17 6.12323e-17
    outer loop
      vertex 12.5 0.463525 3.42658
      vertex 12.5 -1.91342 6.6194
      vertex 12.5 -1.53081e-16 7
    endloop
  endfacet
  facet normal -1 -6.12323e-17 6.12323e-17
    outer loop
      vertex 12.5 0.463525 3.42658
      vertex 12.5 -1.53081e-16 7
      vertex 12.5 1.5 2
    endloop
  endfacet
  facet normal -1 -6.12323e-17 6.12323e-17
    outer loop
      vertex 12.5 1.5 2
      vertex 12.5 -1.53081e-16 7
      vertex 12.5 1.91342 6.6194
    endloop
  endfacet
  facet normal -1 -6.12323e-17 6.12323e-17
    outer loop
      vertex 12.5 1.5 2
      vertex 12.5 1.91342 6.6194
      vertex 12.5 1.91342 -2.6194
    endloop
  endfacet
  facet normal -1 -6.12323e-17 6.12323e-17
    outer loop
      vertex 12.5 1.91342 -2.6194
      vertex 12.5 1.91342 6.6194
      vertex 12.5 3.53553 5.53553
    endloop
  endfacet
  facet normal -1 -6.12323e-17 6.12323e-17
    outer loop
      vertex 12.5 1.91342 -2.6194
      vertex 12.5 3.53553 5.53553
      vertex 12.5 4.6194 3.91342
    endloop
  endfacet
  facet normal -1 -6.12323e-17 6.12323e-17
    outer loop
      vertex 12.5 1.91342 -2.6194
      vertex 12.5 4.6194 3.91342
      vertex 12.5 5 2
    endloop
  endfacet
  facet normal -1 -6.12323e-17 6.12323e-17
    outer loop
      vertex 12.5 1.91342 -2.6194
      vertex 12.5 5 2
      vertex 12.5 4.6194 0.086583
    endloop
  endfacet
  facet normal -1 -6.12323e-17 6.12323e-17
    outer loop
      vertex 12.5 1.91342 -2.6194
      vertex 12.5 4.6194 0.086583
      vertex 12.5 3.53553 -1.53553
    endloop
  endfacet
  facet normal -1 -6.12323e-17 6.12323e-17
    outer loop
      vertex 12.5 0.463525 0.573415
      vertex 12.5 1.91342 -2.6194
      vertex 12.5 -1.21352 1.11832
    endloop
  endfacet
  facet normal -1 -6.12323e-17 0
    outer loop
      vertex 12.5 -1.21352 2
      vertex 12.5 -5 2
      vertex 12.5 -1.21352 2.88168
    endloop
  endfacet
  facet normal -1 -6.12323e-17 0
    outer loop
      vertex 12.5 -1.21352 2.88168
      vertex 12.5 -5 2
      vertex 12.5 -5 3
    endloop
  endfacet
  facet normal -1 -6.12323e-17 0
    outer loop
      vertex 12.5 -1.21352 2.88168
      vertex 12.5 -5 3
      vertex 12.5 -0.849368 3
    endloop
  endfacet
  facet normal 0 0 1
    outer loop
      vertex 6 -5 3
      vertex 6 -10 3
      vertex 12.5 -10 3
    endloop
  endfacet
  facet normal 0 0 1
    outer loop
      vertex 15 -10 3
      vertex 6 -5 3
      vertex 12.5 -10 3
    endloop
  endfacet
  facet normal 0 0 1
    outer loop
      vertex 15 -10 3
      vertex 17.5 -10 3
      vertex 6 -5 3
    endloop
  endfacet
  facet normal 0 0 1
    outer loop
      vertex 17.5 -10 3
      vertex 12.5 -5 3
      vertex 6 -5 3
    endloop
  endfacet
  facet normal 0 0 1
    outer loop
      vertex 17.5 -10 3
      vertex 17.5 -4.80109 3
      vertex 12.5 -5 3
    endloop
  endfacet
  facet normal 0 0 1
    outer loop
      vertex 12.5 -4.80109 3
      vertex 12.5 -5 3
      vertex 17.5 -4.80109 3
    endloop
  endfacet
  facet normal 0 0 1
    outer loop
      vertex 12.5 -0.849368 3
      vertex 12.5 -5 3
      vertex 12.5 -4.80109 3
    endloop
  endfacet
  facet normal 0 0 1
    outer loop
      vertex 3 -5 6
      vertex 3 -35 6
      vertex 6 -35 6
    endloop
  endfacet
  facet normal 0 0 1
    outer loop
      vertex 6 -5 6
      vertex 3 -5 6
      vertex 6 -35 6
    endloop
  endfacet
  facet normal 0 0 1
    outer loop
      vertex -3 -5 3
      vertex -3 -10 3
      vertex 3 -10 3
    endloop
  endfacet
  facet normal 0 0 1
    outer loop
      vertex 3 -5 3
      vertex -3 -5 3
      vertex 3 -10 3
    endloop
  endfacet
  facet normal 0 0 1
    outer loop
      vertex -3 -35 6
      vertex -3 -5 6
      vertex -6 -5 6
    endloop
  endfacet
  facet normal 0 0 1
    outer loop
      vertex -6 -35 6
      vertex -3 -35 6
      vertex -6 -5 6
    endloop
  endfacet
  facet normal -1.36255e-17 0.974928 0.222521
    outer loop
      vertex -3 -31.5637 -0.24698
      vertex -6 -31.5637 -0.24698
      vertex -3 -31.9499 1.44504
    endloop
  endfacet
  facet normal -1.36255e-17 0.974928 0.222521
    outer loop
      vertex -3 -31.9499 1.44504
      vertex -6 -31.5637 -0.24698
      vertex -6 -31.9499 1.44504
    endloop
  endfacet
  facet normal -5.51684e-17 0.433884 0.900969
    outer loop
      vertex -3 -31.5637 -0.24698
      vertex -3 -30 -1
      vertex -6 -30 -1
    endloop
  endfacet
  facet normal -5.51684e-17 0.433884 0.900969
    outer loop
      vertex -6 -31.5637 -0.24698
      vertex -3 -31.5637 -0.24698
      vertex -6 -30 -1
    endloop
  endfacet
  facet normal 3.81778e-17 0.781831 -0.62349
    outer loop
      vertex -3 -30.8678 2.80194
      vertex -3 -31.9499 1.44504
      vertex -6 -30.8678 2.80194
    endloop
  endfacet
  facet normal 3.81778e-17 0.781831 -0.62349
    outer loop
      vertex -6 -30.8678 2.80194
      vertex -3 -31.9499 1.44504
      vertex -6 -31.9499 1.44504
    endloop
  endfacet
  facet normal 6.12323e-17 0 -1
    outer loop
      vertex -3 -29.1322 2.80194
      vertex -3 -30.8678 2.80194
      vertex -6 -29.1322 2.80194
    endloop
  endfacet
  facet normal 6.12323e-17 0 -1
    outer loop
      vertex -6 -29.1322 2.80194
      vertex -3 -30.8678 2.80194
      vertex -6 -30.8678 2.80194
    endloop
  endfacet
  facet normal 3.81778e-17 -0.781831 -0.62349
    outer loop
      vertex -6 -28.0501 1.44504
      vertex -3 -28.0501 1.44504
      vertex -3 -29.1322 2.80194
    endloop
  endfacet
  facet normal 3.81778e-17 -0.781831 -0.62349
    outer loop
      vertex -6 -29.1322 2.80194
      vertex -6 -28.0501 1.44504
      vertex -3 -29.1322 2.80194
    endloop
  endfacet
  facet normal -1.36255e-17 -0.974928 0.222521
    outer loop
      vertex -3 -28.4363 -0.24698
      vertex -3 -28.0501 1.44504
      vertex -6 -28.0501 1.44504
    endloop
  endfacet
  facet normal -1.36255e-17 -0.974928 0.222521
    outer loop
      vertex -6 -28.4363 -0.24698
      vertex -3 -28.4363 -0.24698
      vertex -6 -28.0501 1.44504
    endloop
  endfacet
  facet normal -5.51684e-17 -0.433884 0.900969
    outer loop
      vertex -3 -30 -1
      vertex -3 -28.4363 -0.24698
      vertex -6 -28.4363 -0.24698
    endloop
  endfacet
  facet normal -5.51684e-17 -0.433884 0.900969
    outer loop
      vertex -6 -30 -1
      vertex -3 -30 -1
      vertex -6 -28.4363 -0.24698
    endloop
  endfacet
  facet normal -1.36255e-17 0.974928 0.222521
    outer loop
      vertex -3 -16.5637 0.75302
      vertex -6 -16.5637 0.75302
      vertex -3 -16.9499 2.44504
    endloop
  endfacet
  facet normal -1.36255e-17 0.974928 0.222521
    outer loop
      vertex -3 -16.9499 2.44504
      vertex -6 -16.5637 0.75302
      vertex -6 -16.9499 2.44504
    endloop
  endfacet
  facet normal -5.51684e-17 0.433884 0.900969
    outer loop
      vertex -3 -16.5637 0.75302
      vertex -3 -15 1.19403e-15
      vertex -6 -15 1.01033e-15
    endloop
  endfacet
  facet normal -5.51684e-17 0.433884 0.900969
    outer loop
      vertex -6 -16.5637 0.75302
      vertex -3 -16.5637 0.75302
      vertex -6 -15 1.01033e-15
    endloop
  endfacet
  facet normal 3.81778e-17 0.781831 -0.62349
    outer loop
      vertex -3 -15.8678 3.80194
      vertex -3 -16.9499 2.44504
      vertex -6 -15.8678 3.80194
    endloop
  endfacet
  facet normal 3.81778e-17 0.781831 -0.62349
    outer loop
      vertex -6 -15.8678 3.80194
      vertex -3 -16.9499 2.44504
      vertex -6 -16.9499 2.44504
    endloop
  endfacet
  facet normal 6.12323e-17 0 -1
    outer loop
      vertex -3 -14.1322 3.80194
      vertex -3 -15.8678 3.80194
      vertex -6 -14.1322 3.80194
    endloop
  endfacet
  facet normal 6.12323e-17 0 -1
    outer loop
      vertex -6 -14.1322 3.80194
      vertex -3 -15.8678 3.80194
      vertex -6 -15.8678 3.80194
    endloop
  endfacet
  facet normal 3.81778e-17 -0.781831 -0.62349
    outer loop
      vertex -6 -13.0501 2.44504
      vertex -3 -13.0501 2.44504
      vertex -3 -14.1322 3.80194
    endloop
  endfacet
  facet normal 3.81778e-17 -0.781831 -0.62349
    outer loop
      vertex -6 -14.1322 3.80194
      vertex -6 -13.0501 2.44504
      vertex -3 -14.1322 3.80194
    endloop
  endfacet
  facet normal -1.36255e-17 -0.974928 0.222521
    outer loop
      vertex -3 -13.4363 0.75302
      vertex -3 -13.0501 2.44504
      vertex -6 -13.0501 2.44504
    endloop
  endfacet
  facet normal -1.36255e-17 -0.974928 0.222521
    outer loop
      vertex -6 -13.4363 0.75302
      vertex -3 -13.4363 0.75302
      vertex -6 -13.0501 2.44504
    endloop
  endfacet
  facet normal -5.51684e-17 -0.433884 0.900969
    outer loop
      vertex -3 -15 1.19403e-15
      vertex -3 -13.4363 0.75302
      vertex -6 -13.4363 0.75302
    endloop
  endfacet
  facet normal -5.51684e-17 -0.433884 0.900969
    outer loop
      vertex -6 -15 1.01033e-15
      vertex -3 -15 1.19403e-15
      vertex -6 -13.4363 0.75302
    endloop
  endfacet
  facet normal 3.81778e-17 0.781831 -0.62349
    outer loop
      vertex 6 -30.8678 2.80194
      vertex 6 -31.9499 1.44504
      vertex 3 -30.8678 2.80194
    endloop
  endfacet
  facet normal 3.81778e-17 0.781831 -0.62349
    outer loop
      vertex 3 -30.8678 2.80194
      vertex 6 -31.9499 1.44504
      vertex 3 -31.9499 1.44504
    endloop
  endfacet
  facet normal -1.36255e-17 0.974928 0.222521
    outer loop
      vertex 6 -31.5637 -0.24698
      vertex 3 -31.5637 -0.24698
      vertex 6 -31.9499 1.44504
    endloop
  endfacet
  facet normal -1.36255e-17 0.974928 0.222521
    outer loop
      vertex 6 -31.9499 1.44504
      vertex 3 -31.5637 -0.24698
      vertex 3 -31.9499 1.44504
    endloop
  endfacet
  facet normal 6.12323e-17 0 -1
    outer loop
      vertex 6 -29.1322 2.80194
      vertex 6 -30.8678 2.80194
      vertex 3 -29.1322 2.80194
    endloop
  endfacet
  facet normal 6.12323e-17 0 -1
    outer loop
      vertex 3 -29.1322 2.80194
      vertex 6 -30.8678 2.80194
      vertex 3 -30.8678 2.80194
    endloop
  endfacet
  facet normal 3.81778e-17 -0.781831 -0.62349
    outer loop
      vertex 3 -28.0501 1.44504
      vertex 6 -28.0501 1.44504
      vertex 6 -29.1322 2.80194
    endloop
  endfacet
  facet normal 3.81778e-17 -0.781831 -0.62349
    outer loop
      vertex 3 -29.1322 2.80194
      vertex 3 -28.0501 1.44504
      vertex 6 -29.1322 2.80194
    endloop
  endfacet
  facet normal -1.36255e-17 -0.974928 0.222521
    outer loop
      vertex 6 -28.4363 -0.24698
      vertex 6 -28.0501 1.44504
      vertex 3 -28.0501 1.44504
    endloop
  endfacet
  facet normal -1.36255e-17 -0.974928 0.222521
    outer loop
      vertex 3 -28.4363 -0.24698
      vertex 6 -28.4363 -0.24698
      vertex 3 -28.0501 1.44504
    endloop
  endfacet
  facet normal -5.51684e-17 -0.433884 0.900969
    outer loop
      vertex 6 -30 -1
      vertex 6 -28.4363 -0.24698
      vertex 3 -28.4363 -0.24698
    endloop
  endfacet
  facet normal -5.51684e-17 -0.433884 0.900969
    outer loop
      vertex 3 -30 -1
      vertex 6 -30 -1
      vertex 3 -28.4363 -0.24698
    endloop
  endfacet
  facet normal -5.51684e-17 0.433884 0.900969
    outer loop
      vertex 6 -31.5637 -0.24698
      vertex 6 -30 -1
      vertex 3 -30 -1
    endloop
  endfacet
  facet normal -5.51684e-17 0.433884 0.900969
    outer loop
      vertex 3 -31.5637 -0.24698
      vertex 6 -31.5637 -0.24698
      vertex 3 -30 -1
    endloop
  endfacet
  facet normal 3.81778e-17 0.781831 -0.62349
    outer loop
      vertex 6 -15.8678 3.80194
      vertex 6 -16.9499 2.44504
      vertex 3 -15.8678 3.80194
    endloop
  endfacet
  facet normal 3.81778e-17 0.781831 -0.62349
    outer loop
      vertex 3 -15.8678 3.80194
      vertex 6 -16.9499 2.44504
      vertex 3 -16.9499 2.44504
    endloop
  endfacet
  facet normal -1.36255e-17 0.974928 0.222521
    outer loop
      vertex 6 -16.5637 0.75302
      vertex 3 -16.5637 0.75302
      vertex 6 -16.9499 2.44504
    endloop
  endfacet
  facet normal -1.36255e-17 0.974928 0.222521
    outer loop
      vertex 6 -16.9499 2.44504
      vertex 3 -16.5637 0.75302
      vertex 3 -16.9499 2.44504
    endloop
  endfacet
  facet normal 6.12323e-17 0 -1
    outer loop
      vertex 6 -14.1322 3.80194
      vertex 6 -15.8678 3.80194
      vertex 3 -14.1322 3.80194
    endloop
  endfacet
  facet normal 6.12323e-17 0 -1
    outer loop
      vertex 3 -14.1322 3.80194
      vertex 6 -15.8678 3.80194
      vertex 3 -15.8678 3.80194
    endloop
  endfacet
  facet normal 3.81778e-17 -0.781831 -0.62349
    outer loop
      vertex 3 -13.0501 2.44504
      vertex 6 -13.0501 2.44504
      vertex 6 -14.1322 3.80194
    endloop
  endfacet
  facet normal 3.81778e-17 -0.781831 -0.62349
    outer loop
      vertex 3 -14.1322 3.80194
      vertex 3 -13.0501 2.44504
      vertex 6 -14.1322 3.80194
    endloop
  endfacet
  facet normal -1.36255e-17 -0.974928 0.222521
    outer loop
      vertex 6 -13.4363 0.75302
      vertex 6 -13.0501 2.44504
      vertex 3 -13.0501 2.44504
    endloop
  endfacet
  facet normal -1.36255e-17 -0.974928 0.222521
    outer loop
      vertex 3 -13.4363 0.75302
      vertex 6 -13.4363 0.75302
      vertex 3 -13.0501 2.44504
    endloop
  endfacet
  facet normal -5.51684e-17 -0.433884 0.900969
    outer loop
      vertex 6 -15 1.74512e-15
      vertex 6 -13.4363 0.75302
      vertex 3 -13.4363 0.75302
    endloop
  endfacet
  facet normal -5.51684e-17 -0.433884 0.900969
    outer loop
      vertex 3 -15 1.56142e-15
      vertex 6 -15 1.74512e-15
      vertex 3 -13.4363 0.75302
    endloop
  endfacet
  facet normal -5.51684e-17 0.433884 0.900969
    outer loop
      vertex 6 -16.5637 0.75302
      vertex 6 -15 1.74512e-15
      vertex 3 -15 1.56142e-15
    endloop
  endfacet
  facet normal -5.51684e-17 0.433884 0.900969
    outer loop
      vertex 3 -16.5637 0.75302
      vertex 6 -16.5637 0.75302
      vertex 3 -15 1.56142e-15
    endloop
  endfacet
  facet normal 0.4403 -0.175162 -0.880599
    outer loop
      vertex 22.5 4.59243e-16 -0.5
      vertex 17.5 -1.91342 -2.6194
      vertex 17.5 1.53081e-16 -3
    endloop
  endfacet
  facet normal 0.4403 0.175162 -0.880599
    outer loop
      vertex 22.5 4.59243e-16 -0.5
      vertex 17.5 1.53081e-16 -3
      vertex 22.5 0.956709 -0.309699
    endloop
  endfacet
  facet normal 7.20016e-17 -0.980785 0.19509
    outer loop
      vertex 17.5 -4.80109 3
      vertex 17.5 -5 2
      vertex 17.5 -4.6194 3.91342
    endloop
  endfacet
  facet normal 7.20016e-17 -0.980785 0.19509
    outer loop
      vertex 12.5 -4.6194 3.91342
      vertex 17.5 -4.80109 3
      vertex 17.5 -4.6194 3.91342
    endloop
  endfacet
  facet normal 7.20016e-17 -0.980785 0.19509
    outer loop
      vertex 12.5 -4.80109 3
      vertex 17.5 -4.80109 3
      vertex 12.5 -4.6194 3.91342
    endloop
  endfacet
  facet normal 0.4403 -0.880599 0.175162
    outer loop
      vertex 22.5 -2.5 2
      vertex 17.5 -4.6194 3.91342
      vertex 17.5 -5 2
    endloop
  endfacet
  facet normal 0.4403 -0.880599 -0.175162
    outer loop
      vertex 22.5 -2.3097 1.04329
      vertex 22.5 -2.5 2
      vertex 17.5 -5 2
    endloop
  endfacet
  facet normal 0.440299 -0.880599 -0.175162
    outer loop
      vertex 17.5 -4.6194 0.086583
      vertex 22.5 -2.3097 1.04329
      vertex 17.5 -5 2
    endloop
  endfacet
  facet normal 0.440299 -0.746536 -0.49882
    outer loop
      vertex 22.5 -1.76777 0.232233
      vertex 22.5 -2.3097 1.04329
      vertex 17.5 -4.6194 0.086583
    endloop
  endfacet
  facet normal 0.4403 -0.746536 -0.498819
    outer loop
      vertex 22.5 -1.76777 0.232233
      vertex 17.5 -4.6194 0.086583
      vertex 17.5 -3.53553 -1.53553
    endloop
  endfacet
  facet normal 0.4403 -0.498819 -0.746536
    outer loop
      vertex 22.5 -1.76777 0.232233
      vertex 17.5 -3.53553 -1.53553
      vertex 22.5 -0.956709 -0.309699
    endloop
  endfacet
  facet normal 0.440299 -0.498819 -0.746536
    outer loop
      vertex 22.5 -0.956709 -0.309699
      vertex 17.5 -3.53553 -1.53553
      vertex 17.5 -1.91342 -2.6194
    endloop
  endfacet
  facet normal 0.440299 -0.175162 -0.880599
    outer loop
      vertex 22.5 -0.956709 -0.309699
      vertex 17.5 -1.91342 -2.6194
      vertex 22.5 4.59243e-16 -0.5
    endloop
  endfacet
  facet normal -7.20016e-17 0.980785 -0.19509
    outer loop
      vertex 17.5 5 2
      vertex 17.5 4.6194 0.086583
      vertex 12.5 5 2
    endloop
  endfacet
  facet normal -7.20016e-17 0.980785 -0.19509
    outer loop
      vertex 12.5 5 2
      vertex 17.5 4.6194 0.086583
      vertex 12.5 4.6194 0.086583
    endloop
  endfacet
  facet normal -8.49317e-17 0.83147 -0.55557
    outer loop
      vertex 17.5 4.6194 0.086583
      vertex 17.5 3.53553 -1.53553
      vertex 12.5 4.6194 0.086583
    endloop
  endfacet
  facet normal -8.49317e-17 0.83147 -0.55557
    outer loop
      vertex 12.5 4.6194 0.086583
      vertex 17.5 3.53553 -1.53553
      vertex 12.5 3.53553 -1.53553
    endloop
  endfacet
  facet normal -8.49317e-17 0.55557 -0.83147
    outer loop
      vertex 17.5 1.91342 -2.6194
      vertex 12.5 1.91342 -2.6194
      vertex 17.5 3.53553 -1.53553
    endloop
  endfacet
  facet normal -8.49317e-17 0.55557 -0.83147
    outer loop
      vertex 17.5 3.53553 -1.53553
      vertex 12.5 1.91342 -2.6194
      vertex 12.5 3.53553 -1.53553
    endloop
  endfacet
  facet normal 0.440299 0.175162 -0.880599
    outer loop
      vertex 22.5 0.956709 -0.309699
      vertex 17.5 1.53081e-16 -3
      vertex 17.5 1.91342 -2.6194
    endloop
  endfacet
  facet normal 0.440299 0.49882 -0.746536
    outer loop
      vertex 22.5 0.956709 -0.309699
      vertex 17.5 1.91342 -2.6194
      vertex 22.5 1.76777 0.232233
    endloop
  endfacet
  facet normal 0.4403 0.498819 -0.746536
    outer loop
      vertex 22.5 1.76777 0.232233
      vertex 17.5 1.91342 -2.6194
      vertex 17.5 3.53553 -1.53553
    endloop
  endfacet
  facet normal 0.4403 0.746536 -0.498819
    outer loop
      vertex 22.5 2.3097 1.04329
      vertex 22.5 1.76777 0.232233
      vertex 17.5 3.53553 -1.53553
    endloop
  endfacet
  facet normal 0.440299 0.746536 -0.498819
    outer loop
      vertex 17.5 4.6194 0.086583
      vertex 22.5 2.3097 1.04329
      vertex 17.5 3.53553 -1.53553
    endloop
  endfacet
  facet normal 0.440299 0.880599 -0.175162
    outer loop
      vertex 22.5 2.5 2
      vertex 22.5 2.3097 1.04329
      vertex 17.5 4.6194 0.086583
    endloop
  endfacet
  facet normal 0.4403 0.880599 -0.175162
    outer loop
      vertex 17.5 5 2
      vertex 22.5 2.5 2
      vertex 17.5 4.6194 0.086583
    endloop
  endfacet
  facet normal -4.811e-17 0.980785 0.19509
    outer loop
      vertex 17.5 4.6194 3.91342
      vertex 17.5 5 2
      vertex 12.5 4.6194 3.91342
    endloop
  endfacet
  facet normal -4.811e-17 0.980785 0.19509
    outer loop
      vertex 12.5 4.6194 3.91342
      vertex 17.5 5 2
      vertex 12.5 5 2
    endloop
  endfacet
  facet normal -1.6894e-17 0.83147 0.55557
    outer loop
      vertex 17.5 3.53553 5.53553
      vertex 17.5 4.6194 3.91342
      vertex 12.5 3.53553 5.53553
    endloop
  endfacet
  facet normal -1.6894e-17 0.83147 0.55557
    outer loop
      vertex 12.5 3.53553 5.53553
      vertex 17.5 4.6194 3.91342
      vertex 12.5 4.6194 3.91342
    endloop
  endfacet
  facet normal 1.6894e-17 0.55557 0.83147
    outer loop
      vertex 12.5 1.91342 6.6194
      vertex 17.5 1.91342 6.6194
      vertex 17.5 3.53553 5.53553
    endloop
  endfacet
  facet normal 1.6894e-17 0.55557 0.83147
    outer loop
      vertex 12.5 3.53553 5.53553
      vertex 12.5 1.91342 6.6194
      vertex 17.5 3.53553 5.53553
    endloop
  endfacet
  facet normal 4.811e-17 0.19509 0.980785
    outer loop
      vertex 12.5 -1.53081e-16 7
      vertex 17.5 1.53081e-16 7
      vertex 17.5 1.91342 6.6194
    endloop
  endfacet
  facet normal 4.811e-17 0.19509 0.980785
    outer loop
      vertex 12.5 1.91342 6.6194
      vertex 12.5 -1.53081e-16 7
      vertex 17.5 1.91342 6.6194
    endloop
  endfacet
  facet normal 7.20016e-17 -0.19509 0.980785
    outer loop
      vertex 12.5 -1.91342 6.6194
      vertex 17.5 -1.91342 6.6194
      vertex 17.5 1.53081e-16 7
    endloop
  endfacet
  facet normal 7.20016e-17 -0.19509 0.980785
    outer loop
      vertex 12.5 -1.53081e-16 7
      vertex 12.5 -1.91342 6.6194
      vertex 17.5 1.53081e-16 7
    endloop
  endfacet
  facet normal 8.49317e-17 -0.55557 0.83147
    outer loop
      vertex 12.5 -3.53553 5.53553
      vertex 17.5 -3.53553 5.53553
      vertex 17.5 -1.91342 6.6194
    endloop
  endfacet
  facet normal 8.49317e-17 -0.55557 0.83147
    outer loop
      vertex 12.5 -1.91342 6.6194
      vertex 12.5 -3.53553 5.53553
      vertex 17.5 -1.91342 6.6194
    endloop
  endfacet
  facet normal 8.49317e-17 -0.83147 0.55557
    outer loop
      vertex 17.5 -4.6194 3.91342
      vertex 17.5 -3.53553 5.53553
      vertex 12.5 -3.53553 5.53553
    endloop
  endfacet
  facet normal 8.49317e-17 -0.83147 0.55557
    outer loop
      vertex 12.5 -4.6194 3.91342
      vertex 17.5 -4.6194 3.91342
      vertex 12.5 -3.53553 5.53553
    endloop
  endfacet
  facet normal -7.71573e-17 0.309017 -0.951056
    outer loop
      vertex 22.5 0.463525 3.42658
      vertex 12.5 -0.849368 3
      vertex 12.5 0.463525 3.42658
    endloop
  endfacet
  facet normal -7.71573e-17 0.309017 -0.951056
    outer loop
      vertex 12.5 -1.21352 2.88168
      vertex 12.5 -0.849368 3
      vertex 22.5 0.463525 3.42658
    endloop
  endfacet
  facet normal -7.71573e-17 0.309017 -0.951056
    outer loop
      vertex 12.5 -1.21352 2.88168
      vertex 22.5 0.463525 3.42658
      vertex 22.5 -1.21352 2.88168
    endloop
  endfacet
  facet normal 1.35465e-17 -0.809017 -0.587785
    outer loop
      vertex 12.5 0.463525 3.42658
      vertex 12.5 1.5 2
      vertex 22.5 1.5 2
    endloop
  endfacet
  facet normal 1.35465e-17 -0.809017 -0.587785
    outer loop
      vertex 22.5 0.463525 3.42658
      vertex 12.5 0.463525 3.42658
      vertex 22.5 1.5 2
    endloop
  endfacet
  facet normal 8.55295e-17 -0.809017 0.587785
    outer loop
      vertex 12.5 1.5 2
      vertex 12.5 0.463525 0.573415
      vertex 22.5 0.463525 0.573415
    endloop
  endfacet
  facet normal 8.55295e-17 -0.809017 0.587785
    outer loop
      vertex 22.5 1.5 2
      vertex 12.5 1.5 2
      vertex 22.5 0.463525 0.573415
    endloop
  endfacet
  facet normal 3.93136e-17 0.309017 0.951056
    outer loop
      vertex 22.5 0.463525 0.573415
      vertex 12.5 0.463525 0.573415
      vertex 12.5 -1.21352 1.11832
    endloop
  endfacet
  facet normal 3.93136e-17 0.309017 0.951056
    outer loop
      vertex 22.5 -1.21352 1.11832
      vertex 22.5 0.463525 0.573415
      vertex 12.5 -1.21352 1.11832
    endloop
  endfacet
  facet normal -6.12323e-17 1 0
    outer loop
      vertex 12.5 -1.21352 1.11832
      vertex 12.5 -1.21352 2
      vertex 22.5 -1.21352 1.11832
    endloop
  endfacet
  facet normal -6.12323e-17 1 0
    outer loop
      vertex 22.5 -1.21352 1.11832
      vertex 12.5 -1.21352 2
      vertex 12.5 -1.21352 2.88168
    endloop
  endfacet
  facet normal -6.12323e-17 1 0
    outer loop
      vertex 22.5 -1.21352 1.11832
      vertex 12.5 -1.21352 2.88168
      vertex 22.5 -1.21352 2.88168
    endloop
  endfacet
  facet normal 1 6.12323e-17 -6.12323e-17
    outer loop
      vertex 22.5 2.3097 1.04329
      vertex 22.5 2.5 2
      vertex 22.5 2.3097 2.95671
    endloop
  endfacet
  facet normal 1 6.12323e-17 -6.12323e-17
    outer loop
      vertex 22.5 0.956709 4.3097
      vertex 22.5 2.3097 1.04329
      vertex 22.5 1.76777 3.76777
    endloop
  endfacet
  facet normal 1 6.12323e-17 -6.12323e-17
    outer loop
      vertex 22.5 1.76777 3.76777
      vertex 22.5 2.3097 1.04329
      vertex 22.5 2.3097 2.95671
    endloop
  endfacet
  facet normal 1 6.12323e-17 -6.12323e-17
    outer loop
      vertex 22.5 4.59243e-16 4.5
      vertex 22.5 2.3097 1.04329
      vertex 22.5 0.956709 4.3097
    endloop
  endfacet
  facet normal 1 6.12323e-17 -6.12323e-17
    outer loop
      vertex 22.5 0.463525 3.42658
      vertex 22.5 2.3097 1.04329
      vertex 22.5 4.59243e-16 4.5
    endloop
  endfacet
  facet normal 1 6.12323e-17 -6.12323e-17
    outer loop
      vertex 22.5 -1.21352 2.88168
      vertex 22.5 0.463525 3.42658
      vertex 22.5 -0.956709 4.3097
    endloop
  endfacet
  facet normal 1 6.12323e-17 -6.12323e-17
    outer loop
      vertex 22.5 -1.21352 1.11832
      vertex 22.5 -2.3097 2.95671
      vertex 22.5 -2.5 2
    endloop
  endfacet
  facet normal 1 6.12323e-17 -6.12323e-17
    outer loop
      vertex 22.5 4.59243e-16 -0.5
      vertex 22.5 2.3097 1.04329
      vertex 22.5 -0.956709 -0.309699
    endloop
  endfacet
  facet normal 1 6.12323e-17 -6.12323e-17
    outer loop
      vertex 22.5 0.956709 -0.309699
      vertex 22.5 2.3097 1.04329
      vertex 22.5 4.59243e-16 -0.5
    endloop
  endfacet
  facet normal 1 6.12323e-17 -6.12323e-17
    outer loop
      vertex 22.5 1.76777 0.232233
      vertex 22.5 2.3097 1.04329
      vertex 22.5 0.956709 -0.309699
    endloop
  endfacet
  facet normal 1 6.12323e-17 -6.12323e-17
    outer loop
      vertex 22.5 -0.956709 -0.309699
      vertex 22.5 0.463525 0.573415
      vertex 22.5 -1.76777 0.232233
    endloop
  endfacet
  facet normal 1 6.12323e-17 -6.12323e-17
    outer loop
      vertex 22.5 -0.956709 -0.309699
      vertex 22.5 2.3097 1.04329
      vertex 22.5 0.463525 0.573415
    endloop
  endfacet
  facet normal 1 6.12323e-17 -6.12323e-17
    outer loop
      vertex 22.5 -2.3097 1.04329
      vertex 22.5 -1.21352 1.11832
      vertex 22.5 -2.5 2
    endloop
  endfacet
  facet normal 1 6.12323e-17 -6.12323e-17
    outer loop
      vertex 22.5 -1.21352 1.11832
      vertex 22.5 -1.21352 2.88168
      vertex 22.5 -2.3097 2.95671
    endloop
  endfacet
  facet normal 1 6.12323e-17 -6.12323e-17
    outer loop
      vertex 22.5 -2.3097 2.95671
      vertex 22.5 -1.21352 2.88168
      vertex 22.5 -1.76777 3.76777
    endloop
  endfacet
  facet normal 1 6.12323e-17 -6.12323e-17
    outer loop
      vertex 22.5 -0.956709 4.3097
      vertex 22.5 0.463525 3.42658
      vertex 22.5 4.59243e-16 4.5
    endloop
  endfacet
  facet normal 1 6.12323e-17 -6.12323e-17
    outer loop
      vertex 22.5 1.5 2
      vertex 22.5 2.3097 1.04329
      vertex 22.5 0.463525 3.42658
    endloop
  endfacet
  facet normal 1 6.12323e-17 -6.12323e-17
    outer loop
      vertex 22.5 0.463525 0.573415
      vertex 22.5 -2.3097 1.04329
      vertex 22.5 -1.76777 0.232233
    endloop
  endfacet
  facet normal 1 6.12323e-17 -6.12323e-17
    outer loop
      vertex 22.5 0.463525 0.573415
      vertex 22.5 -1.21352 1.11832
      vertex 22.5 -2.3097 1.04329
    endloop
  endfacet
  facet normal 1 6.12323e-17 -6.12323e-17
    outer loop
      vertex 22.5 -1.21352 2.88168
      vertex 22.5 -0.956709 4.3097
      vertex 22.5 -1.76777 3.76777
    endloop
  endfacet
  facet normal 1 6.12323e-17 -6.12323e-17
    outer loop
      vertex 22.5 1.5 2
      vertex 22.5 0.463525 0.573415
      vertex 22.5 2.3097 1.04329
    endloop
  endfacet
  facet normal 0.4403 0.880599 0.175162
    outer loop
      vertex 22.5 2.3097 2.95671
      vertex 22.5 2.5 2
      vertex 17.5 5 2
    endloop
  endfacet
  facet normal 0.440299 0.880599 0.175162
    outer loop
      vertex 17.5 4.6194 3.91342
      vertex 22.5 2.3097 2.95671
      vertex 17.5 5 2
    endloop
  endfacet
  facet normal 0.440299 0.746536 0.49882
    outer loop
      vertex 22.5 1.76777 3.76777
      vertex 22.5 2.3097 2.95671
      vertex 17.5 4.6194 3.91342
    endloop
  endfacet
  facet normal 0.4403 0.746536 0.498819
    outer loop
      vertex 17.5 3.53553 5.53553
      vertex 22.5 1.76777 3.76777
      vertex 17.5 4.6194 3.91342
    endloop
  endfacet
  facet normal 0.4403 0.498819 0.746536
    outer loop
      vertex 22.5 0.956709 4.3097
      vertex 22.5 1.76777 3.76777
      vertex 17.5 3.53553 5.53553
    endloop
  endfacet
  facet normal 0.440299 0.498819 0.746536
    outer loop
      vertex 17.5 1.91342 6.6194
      vertex 22.5 0.956709 4.3097
      vertex 17.5 3.53553 5.53553
    endloop
  endfacet
  facet normal 0.440299 0.175162 0.880599
    outer loop
      vertex 22.5 4.59243e-16 4.5
      vertex 22.5 0.956709 4.3097
      vertex 17.5 1.91342 6.6194
    endloop
  endfacet
  facet normal 0.4403 0.175162 0.880599
    outer loop
      vertex 17.5 1.53081e-16 7
      vertex 22.5 4.59243e-16 4.5
      vertex 17.5 1.91342 6.6194
    endloop
  endfacet
  facet normal 0.4403 -0.175162 0.880599
    outer loop
      vertex 22.5 -0.956709 4.3097
      vertex 22.5 4.59243e-16 4.5
      vertex 17.5 1.53081e-16 7
    endloop
  endfacet
  facet normal 0.440299 -0.175162 0.880599
    outer loop
      vertex 17.5 -1.91342 6.6194
      vertex 22.5 -0.956709 4.3097
      vertex 17.5 1.53081e-16 7
    endloop
  endfacet
  facet normal 0.440299 -0.49882 0.746536
    outer loop
      vertex 22.5 -1.76777 3.76777
      vertex 22.5 -0.956709 4.3097
      vertex 17.5 -1.91342 6.6194
    endloop
  endfacet
  facet normal 0.4403 -0.498819 0.746536
    outer loop
      vertex 17.5 -3.53553 5.53553
      vertex 22.5 -1.76777 3.76777
      vertex 17.5 -1.91342 6.6194
    endloop
  endfacet
  facet normal 0.4403 -0.746536 0.498819
    outer loop
      vertex 22.5 -2.3097 2.95671
      vertex 22.5 -1.76777 3.76777
      vertex 17.5 -3.53553 5.53553
    endloop
  endfacet
  facet normal 0.440299 -0.746536 0.498819
    outer loop
      vertex 22.5 -2.3097 2.95671
      vertex 17.5 -3.53553 5.53553
      vertex 17.5 -4.6194 3.91342
    endloop
  endfacet
  facet normal 0.440299 -0.880599 0.175162
    outer loop
      vertex 22.5 -2.5 2
      vertex 22.5 -2.3097 2.95671
      vertex 17.5 -4.6194 3.91342
    endloop
  endfacet
endsolid OpenSCAD_Model
